<?xml version="1.0" encoding="UTF-8"?>
<svg version="1.1" viewBox="0 0 2048 1717" width="545" height="457" xmlns="http://www.w3.org/2000/svg">
<path transform="translate(412,70)" d="m0 0h40l27 3 31 7 24 7 23 10 17 8 24 15 12 9 9 7 10 9 12 12 10 13 10 15 9 16 8 20 5 19 2 22v36l-1 33v46l1 12 2 5 4 1h34l38-2 40-4 54-8 38-6 67-14 92-20 53-12 45-9 68-11 50-7 61-7 37-3 23-1h33l46 2 17 1 2 5 44 6 34 7 26 7 24 9 21 9 22 12 18 12 10 8 14 12 14 14 10 13 8 13 10 19 7 19 7 22 5 20 8 4 15 6 24 11 20 12 16 12 20 18 7 8 11 14 11 17 7 15 7 21 4 17 2 12v34l-5 30-6 20-8 19-11 21-14 20-9 14-2 6v23l-5 33-4 15-7 16-10 17-9 12-11 13-12 12-8 7-12 10-15 11-21 14-16 10-17 10-25 13-19 10-19 9-15 7-25 11-37 15-41 16-53 20-72 27-61 26-24 11-22 12-19 11-16 10-30 20-17 12-11 8-14 10-16 13-16 12-19 14-36 26-17 12-16 11-20 13-19 12-32 17-27 12-25 9-17 4-2 9-11 32-6 14-11 20-14 20-9 11-9 10-14 12-18 13-18 11-21 11-36 12-22 5-15 3-28 2h-20l-28-2-36-6-14-3-34-10-25-10-16-8-19-10-20-12-10-7-13-9-16-12-12-10-8-7-14-12-12-11-8-8-7-8-9-10-13-17-14-20-7-11-10-17-13-28-8-20-6-19-9-37-4-30-1-16v-14l2-25 6-27 9-27 11-24 11-18 14-18 8-10 3-8-4-6-7-10-13-21-10-19-11-27-9-28-11-42-7-41-3-30-2-29v-44l3-42 5-38 6-36 11-59 10-58 3-27v-30l-3-11-6-15-8-12-11-14-10-11-9-11-16-17-22-22-22-28-13-20-7-15-5-15-3-16-1-20 2-19 5-21 8-22 6-12 10-16 9-12 8-10 9-10 8-7 13-11 23-16 19-11 25-12 24-8 25-6 27-4z" fill="#010101"/>
<path transform="translate(412,180)" d="m0 0h41l15 2 23 5 11 4 16 7 17 9 3 2v2l4 2 10 9 6 6v2h2l8 13 6 15 1 4v41l-2 46v23l3 30 3 15 6 19 8 15 10 14 5 5 11 10 10 7 16 8 21 7 13 2 11 1 35 1 47-2 32-2 47-6 51-8 49-9 25-6 30-7 20-4 36-8 55-12 24-4 6-2 26-4 43-8 27-3 24-4 27-2 27-3 20-1 28-2 22-1h53l36 2 27 3 34 6 20 5 22 8 21 11 12 8 14 12 6 7 2 4v3h-64l-41 2-39 4-28 4-34 6-44 10-29 8-30 9-36 13-28 11-23 10-39 19-24 14-15 9-4-1-12-17-13-16-12-13-14-14-16-11-10-4-6-1-2 4v14l5 19 7 21 8 21 15 36 11 27 28 77 13 43 10 36 14 57 11 50 9 51 8 35 6 21 6 8 3 3v2l4 1 7-8 8-16 4-14 7-40 1-11 2-44 3-3 10-5 13-8 26-14 19-10 16-8 25-12 40-17 29-11 31-11 43-12 30-7 24-4 35-4 17-1h18l25 2 24 4 19 5 15 7 6 4v2l4 2 9 7 7 8 6 10 3 9v13l-3 10-8 14-11 13-9 9-11 9-17 12-14 9-13 7-14 8-15 7-25 12-20 9-21 9-72 28-15 5-24 9-38 14-22 8-48 18-20 8-13 5-27 12-24 11-22 12-24 14-22 13-15 10-14 10-15 10-18 13-16 12-19 14-34 26-12 9-14 10-19 14-17 11-15 10-46 25-12 5-15 6-33 11-24 6-30 4-13 1h-49l-36-4-22-4-33-8-18-6-24-11-24-14-14-10-10-8-14-13-9-11-10-13-9-13-13-24-9-25-6-20-4-20-2-17v-28l5-33 10-34 7-20 12-29 14-27 10-17 12-18 10-14 14-18 12-14 14-15 13-13 8-7 13-12 10-9 12-12 2-6-6-1h-11l-16 4-15 6-16 8-18 10-16 11-16 12-13 11-10 9-8 7-8 8-7 8-12 14-13 17-7 10-15 23-15 26-18 38-2 4h-2l-10-13-11-15-6-9-12-27-7-18-9-38-6-37-3-23-1-19v-42l2-25 7-49 9-53 7-36 6-30 4-27 3-27 1-15v-23l-2-22-3-17-10-28-9-19-11-18-9-12-7-9-11-13-11-12-7-7-7-8-7-7-6-5-7-8-14-15-5-5v-2h-2l-7-11-2-5v-8l3-12 5-13 9-13 19-19 10-7 19-11 20-8 24-7z" fill="#FEFEFE"/>
<path transform="translate(1528,579)" d="m0 0h84l30 3 27 4 28 6 25 7 13 5 8 4 9 4 15 10 13 10 10 9 10 15 4 11 3 14v11l-5 22-4 9-5 5-5 1-8-6-26-13-25-8-29-6-25-3-14-1h-41l-33 3-37 6-27 6-47 13-51 18-31 13-26 12-23 11-20 10-36 20-17 10-17 11-3-1-7-36-8-30-7-23-14-37-8-18-6-12 4-4 33-16 29-12 42-15 31-10 35-9 43-9 55-9 39-4z" fill="#FEFEFE"/>
<path transform="translate(435,1163)" d="m0 0h2l2 7 5 30 5 21 11 33 8 18 13 23 10 15 9 12 11 14 11 12 14 14 11 9 16 13 18 12 25 15 32 14 21 8 35 10 25 5 43 6 11 1 32 1 2 1v5l-10 12-5 4-5 5-13 9-14 8-12 5-13 4-5 2-25 2h-23l-22-1-25-5-19-5-29-10-9-4-22-11-20-13-6-4-11-8-15-12-11-9-13-13-13-14-9-12-14-19-11-18-8-16-10-23-8-27-3-19-1-12v-21l4-22 6-18 8-15 8-11z" fill="#FEFEFE"/>
<path transform="translate(404,177)" d="m0 0h45l17 2 25 6 25 9 11 6 7 3 10 8 6 5 7 8 6 7 8 14 4 10 1 4v47l-1 30v46l1 11v9h-1l-3-30v-23l2-46v-41l-5-15-6-11-3-4v-2h-2l-7-8-11-10-2-1v-2l-5-2-19-10-16-7-15-4-19-4-11-1h-41l-12 1-27 8-21 9-18 11-10 8-16 16-9 14-5 13-2 10v8l8 16h2l7 8 8 8 7 8 8 9 8 7 8 8 7 8 9 9 9 11 10 12 11 15 9 15 8 16 5 12 6 16 4 16 3 29v25l-3 32-3 23-8 42-7 36-9 53-7 49-2 25v42l1 19 6 42 4 22 8 34 10 25 9 20 6 9 12 16 8 10-1 2-14-16-8-10-9-15-9-19-8-21-4-13-4-16-4-21-4-29-2-25v-73l7-60 10-50 3-18 10-50 5-37 1-17v-42l-1-16-2-13-10-30-7-16-6-9-4-9-11-15-11-13-7-8-13-15-9-9v-2l-4-2-15-15v-2l-4-2-24-26-7-11-1-3v-9l2-9 3-8 5-11 9-12 5-6 8-7 9-8 14-9 13-8 19-8 21-6z" fill="#585858"/>
<path transform="translate(1695,792)" d="m0 0 8 1 14 5 13 7 12 9 7 7 7 11 4 10 1 5v10l-2 11-5 8-4 8-11 13-8 8-11 9-15 11-10 7-13 8-9 5-19 10-29 15-20 9-22 9-24 10-18 7-8 3-18 7-26 9-16 6-20 7-15 6-12 5-9 2-12 5-10 3-40 16-10 3-15 7-13 5-8 4-12 4-5 3-8 3-29 15-13 8-10 5-3 3-11 6-18 11-15 10-14 9-10 7-16 12-13 10-17 13-11 8-12 9-13 10-19 14-17 12-14 11-13 9-14 9-14 7-19 11-11 6-16 8-19 8-8 3-21 5-14 3-28 4-21 2h-50v-1l45-1 20-2 23-3 27-7 24-8 19-7 13-5 16-9 24-13 13-8 20-13 14-10 19-14 11-8 16-12 9-7 16-12 19-14 13-10 18-13 28-19 10-7 19-12 14-8 17-10 24-13 16-8 22-10 25-11 72-27 39-14 56-21 17-6 20-8 34-13 19-8 36-16 17-9 15-7 15-8 11-6 24-16 9-7 13-11 8-8 9-12 8-16 1-5v-13l-4-11-8-12-10-9-6-4-4-4-16-7-8-3-7-2z" fill="#585858"/>
<path transform="translate(1391,291)" d="m0 0h33l46 2 17 1 2 5 7 1v1h-12l-13-2h-124l-14 2-19 1-14 2-27 2-34 5-34 4-50 9-19 3-22 4-27 6-8 1-9 3-9 1-10 3h-5l-7 2-20 5-18 3-12 3-9 2-7 2-21 5-11 2-8 2-16 2-4 2-30 6-35 5-17 3-2 1-28 2-3 2-11 1-30 1-2 1h-63v-1l57-2 45-4 37-5 59-9 72-15 92-20 53-12 45-9 68-11 50-7 61-7 37-3z" fill="#595959"/>
<path transform="translate(1403,404)" d="m0 0h21l39 2 31 2 36 7 18 4 6 2v1l-9-1-31-6-23-3-28-2-19-1h-53l-41 2-9 1-22 1-25 3-27 2-31 5-25 3-42 8-22 3-12 3-28 5-22 5-59 13-34 7-25 6-26 6-50 9-55 8h-9v-1l37-6 34-6 25-5 27-5 32-7 31-7 18-4 12-3 27-5 25-5 9-3 32-6 12-3 34-5 37-6 28-4 26-4 29-3 23-3 33-2z" fill="#585858"/>
<path transform="translate(418,1185)" d="m0 0 1 2-7 15-5 17-3 18v23l3 23 4 17 7 21 13 29 9 15 8 12 9 12 8 11 11 12 6 7 12 12 11 9 16 13 10 7 11 7 18 11 21 10 14 6 31 10 27 6 7 1 22 1h23l25-2 10-4 14-4 17-9 12-8 6-5h2l1-3h2l1-3 5-5 6-7v3l-4 6-15 16-11 7-14 8-12 5-12 3-3 3-3 1-35 3h-11l-37-3-34-9-16-5-15-6-16-8-20-11-22-15-9-7-14-11-13-12-10-9-16-16-11-14-10-14-13-21-10-21-6-15-8-23-5-25-1-15v-16l2-16 4-15 7-16z" fill="#585858"/>
<path transform="translate(1075,336)" d="m0 0h4l-1 3-5 1-12 2-10 3h-5l-7 2-20 5-18 3-12 3-9 2-7 2-21 5-11 2-8 2-16 2-4 2-30 6-35 5-17 3-2 1-28 2-3 2-11 1-30 1-2 1h-63v-1l57-2 45-4 37-5 59-9 72-15 92-20z" fill="#585858"/>
<path transform="translate(1749,610)" d="m0 0 6 2 9 5 11 7 14 12 5 6 9 14 5 14 2 9v19l-4 11-4 15-4 5-5 4-5-1-9-6-8-5-24-11-16-6-17-4-2-2 12 2 15 4 18 6 16 8 10 6 5 4 5-1 3-1 2-4 5-15 3-15v-11l-3-14-4-11-8-12-13-13-11-8-15-10z" fill="#585858"/>
<path transform="translate(1630,463)" d="m0 0 4 2 6 8 3 6v2h-18l-14-1h-89v-1l27-2 25-1h53l11 1-5-10z" fill="#585858"/>
<path transform="translate(794,390)" d="m0 0h7v2l-3 2-11 1h-24v-2z" fill="#595959"/>
<path transform="translate(444,1153)" d="m0 0 2 1-5 7h-2v9h-1l-1-7-3 1v-2l8-6z" fill="#585858"/>
</svg>
